<?xml version="1.0" standalone="no"?>
<!DOCTYPE svg PUBLIC "-//W3C//DTD SVG 20010904//EN"
 "http://www.w3.org/TR/2001/REC-SVG-20010904/DTD/svg10.dtd">
<svg version="1.0" xmlns="http://www.w3.org/2000/svg"
 width="370.000000pt" height="370.000000pt" viewBox="0 0 370.000000 370.000000"
 preserveAspectRatio="xMidYMid meet">
<metadata>
Created by potrace 1.11, written by Peter Selinger 2001-2013
</metadata>
<g transform="translate(0.000000,370.000000) scale(0.100000,-0.100000)"
fill="#000000" stroke="none">
<path d="M1100 3355 c-322 -44 -569 -149 -724 -310 -57 -59 -120 -162 -141
-230 -26 -83 -32 -243 -11 -284 24 -46 50 -56 151 -55 77 1 102 5 174 34 93
36 236 128 236 150 0 9 -11 16 -25 18 -40 5 -130 34 -130 43 0 14 164 106 235
132 124 44 228 61 385 61 274 2 484 -40 610 -119 98 -62 167 -164 177 -262 6
-53 5 -54 -18 -49 -171 38 -495 47 -678 20 -310 -45 -568 -147 -631 -250 -37
-59 -21 -131 40 -182 51 -41 165 -82 296 -106 171 -31 206 -34 211 -20 2 6
-19 36 -47 67 -27 30 -50 57 -50 60 0 11 128 85 190 110 132 52 256 70 472 71
108 0 200 -2 203 -6 13 -13 -87 -203 -153 -291 -279 -369 -842 -592 -1365
-538 -64 7 -130 16 -147 21 -38 11 -45 1 -59 -81 -15 -89 -14 -132 5 -200 21
-74 63 -119 139 -150 55 -22 74 -23 230 -23 153 0 182 3 285 28 241 60 426
144 610 278 25 18 47 35 50 38 3 3 39 34 80 70 69 60 135 127 152 153 4 7 10
9 13 5 4 -3 -2 -23 -13 -45 -56 -110 -112 -366 -112 -509 0 -279 149 -583 328
-671 53 -26 65 -28 177 -27 102 1 133 6 205 29 140 45 232 99 384 224 240 198
488 582 596 926 78 244 78 464 1 589 -41 65 -122 123 -191 136 l-35 6 40 18
c37 16 135 41 178 45 14 2 6 38 -27 114 -72 164 -158 257 -237 257 -125 0
-438 -163 -678 -353 -47 -37 -62 -45 -57 -30 8 26 -61 92 -136 129 l-53 26 0
166 c0 145 -3 178 -24 252 -44 160 -116 271 -236 362 -161 124 -334 169 -635
167 -80 -1 -188 -7 -240 -14z m1141 -1179 c19 -7 43 -16 54 -20 17 -6 12 -14
-41 -64 -33 -31 -86 -88 -118 -127 -33 -38 -61 -72 -63 -75 -2 -2 11 27 30 65
29 59 45 103 82 223 5 15 15 15 56 -2z m928 -159 c47 -23 65 -71 64 -171 -1
-194 -74 -386 -236 -626 -40 -58 -76 -110 -82 -117 -5 -6 -21 -26 -35 -45 -34
-45 -185 -205 -251 -267 -158 -146 -350 -263 -435 -265 -43 -1 -49 2 -89 47
-65 71 -79 158 -51 327 22 132 108 367 177 482 50 83 61 93 88 79 34 -19 55
-12 81 27 89 136 327 370 465 457 48 30 137 69 180 78 41 9 101 6 124 -6z"/>
</g>
</svg>
